HIERARCHY
ROOT Hips
{
 OFFSET 0.000000 0.000000 0.000000
 CHANNELS 6 Xposition Yposition Zposition Yrotation Xrotation Zrotation
 JOINT Chest
 {
  OFFSET 0.000000 9.585900 0.002600
  CHANNELS 3 Yrotation Xrotation Zrotation
  JOINT Chest2
  {
   OFFSET 0.000000 9.601200 -0.005300
   CHANNELS 3 Yrotation Xrotation Zrotation
   JOINT Chest3
   {
    OFFSET 0.000000 9.561800 0.000000
    CHANNELS 3 Yrotation Xrotation Zrotation
    JOINT Chest4
    {
     OFFSET 0.000000 9.552100 0.000000
     CHANNELS 3 Yrotation Xrotation Zrotation
     JOINT Neck
     {
      OFFSET 0.000000 14.453000 0.000000
      CHANNELS 3 Yrotation Xrotation Zrotation
      JOINT Head
      {
       OFFSET 0.000000 8.936500 -0.011300
       CHANNELS 3 Yrotation Xrotation Zrotation
       End Site
       {
        OFFSET 0.000000 17.073600 -0.006000
       }
      }
     }
     JOINT RightCollar
     {
      OFFSET -2.921100 9.558500 0.000000
      CHANNELS 3 Yrotation Xrotation Zrotation
      JOINT RightShoulder
      {
       OFFSET -13.519700 0.000000 0.000000
       CHANNELS 3 Yrotation Xrotation Zrotation
       JOINT RightElbow
       {
        OFFSET 0.000000 -29.696600 0.000000
        CHANNELS 3 Yrotation Xrotation Zrotation
        JOINT RightWrist
        {
         OFFSET 0.000000 -24.004700 0.000000
         CHANNELS 3 Yrotation Xrotation Zrotation
         End Site
         {
          OFFSET 0.000000 -17.728500 0.000000
         }
        }
       }
      }
     }
     JOINT LeftCollar
     {
      OFFSET 2.921100 9.558500 0.000000
      CHANNELS 3 Yrotation Xrotation Zrotation
      JOINT LeftShoulder
      {
       OFFSET 13.519700 0.000000 0.000000
       CHANNELS 3 Yrotation Xrotation Zrotation
       JOINT LeftElbow
       {
        OFFSET 0.000000 -29.696600 0.000000
        CHANNELS 3 Yrotation Xrotation Zrotation
        JOINT LeftWrist
        {
         OFFSET 0.000000 -24.004700 0.000000
         CHANNELS 3 Yrotation Xrotation Zrotation
         End Site
         {
          OFFSET 0.000000 -17.728500 0.000000
         }
        }
       }
      }
     }
    }
   }
  }
 }
 JOINT RightHip
 {
  OFFSET -7.771700 -0.012900 -0.001300
  CHANNELS 3 Yrotation Xrotation Zrotation
  JOINT RightKnee
  {
   OFFSET 0.000000 -40.869800 0.001200
   CHANNELS 3 Yrotation Xrotation Zrotation
   JOINT RightAnkle
   {
    OFFSET 0.000000 -39.717900 0.002100
    CHANNELS 3 Yrotation Xrotation Zrotation
    JOINT RightToe
    {
     OFFSET 0.000000 -4.965400 11.033500
     CHANNELS 3 Yrotation Xrotation Zrotation
     End Site
     {
      OFFSET 0.000000 -1.423100 5.872300
     }
    }
   }
  }
 }
 JOINT LeftHip
 {
  OFFSET 7.771700 -0.012900 -0.001300
  CHANNELS 3 Yrotation Xrotation Zrotation
  JOINT LeftKnee
  {
   OFFSET 0.000000 -40.869800 0.001200
   CHANNELS 3 Yrotation Xrotation Zrotation
   JOINT LeftAnkle
   {
    OFFSET 0.000000 -39.717900 0.002100
    CHANNELS 3 Yrotation Xrotation Zrotation
    JOINT LeftToe
    {
     OFFSET 0.000000 -4.965400 11.033500
     CHANNELS 3 Yrotation Xrotation Zrotation
     End Site
     {
      OFFSET 0.000000 -1.423100 5.872300
     }
    }
   }
  }
 }
}
MOTION
Frames: 16
Frame Time: 0.008333
-215.007825 57.887553 133.858485 177.775640 -35.288591 -0.838782 2.226331 23.063697 2.915276 0.242724 3.380092 0.390428 0.400528 5.459660 0.594535 1.772306 19.398023 2.501334 -2.399241 14.932562 -0.519899 -4.216406 -8.083872 0.020563 -0.399581 1.830363 -3.191794 -3.956423 -6.324832 -5.893111 155.314234 -40.850088 -149.104921 15.723691 -15.939229 -48.908131 -0.989277 2.865165 3.622072 34.214981 -2.126849 6.431652 -170.635255 -36.192361 161.505865 -10.645968 -16.695921 33.413200 6.475533 -39.721596 -5.075785 -8.949786 68.877846 -11.510876 -2.009149 22.217730 -3.587330 -1.480648 -15.337182 12.136468 -10.550580 -38.747699 1.821241 31.488765 69.088768 32.621319 -11.775836 7.092336 -4.837119 -0.422954 -0.180033 -0.188974
-215.014104 57.869606 133.892074 177.731199 -35.286348 -0.802681 2.262182 23.052647 2.967890 0.235279 3.387637 0.344575 0.407562 5.456275 0.668369 1.740516 19.403975 2.445005 -2.382738 14.919633 -0.517427 -4.212285 -8.108094 -0.027233 -0.414925 1.850083 -3.228882 -4.304050 -6.047739 -5.518445 155.728872 -40.141786 -149.720337 15.756444 -15.801317 -48.966581 -0.911589 2.916889 3.655428 34.019696 -2.157829 6.029799 -169.169202 -35.057353 160.898728 -11.012470 -16.861770 33.260349 6.649596 -39.791119 -5.113931 -8.779194 68.897346 -11.352219 -2.034714 22.475774 -3.476845 -1.531250 -15.519629 12.118335 -10.504895 -38.758797 1.803637 31.436327 69.061470 32.571257 -11.840103 7.107018 -4.881065 -0.357050 -0.139447 -0.157525
-215.021224 57.850255 133.926915 177.673207 -35.294273 -0.755184 2.305805 23.057720 2.971156 0.236854 3.386600 0.366554 0.403822 5.455660 0.666489 1.748283 19.398105 2.511450 -2.393902 14.907500 -0.571627 -4.233530 -8.104175 -0.070208 -0.510758 1.962978 -3.329195 -4.716744 -5.839092 -5.131741 156.361777 -39.427522 -150.439739 15.834804 -15.708349 -49.136393 -0.849102 2.974366 3.620915 33.793434 -2.204517 5.610589 -167.783449 -33.972621 160.324975 -11.367758 -17.036373 33.108350 6.790789 -39.842117 -5.129703 -8.518828 68.903988 -11.137375 -2.125498 22.729698 -3.424824 -1.481932 -15.708200 12.120907 -10.433178 -38.765557 1.762362 31.421367 69.027793 32.570246 -11.803683 7.158215 -4.860454 -0.408753 -0.123230 -0.179588
-215.024786 57.831344 133.960824 177.597686 -35.329575 -0.720049 2.374145 23.088599 3.000540 0.238329 3.382969 0.390165 0.396800 5.460869 0.637868 1.764026 19.388461 2.585013 -2.396065 14.890907 -0.602742 -4.186162 -8.176772 -0.137381 -0.611292 2.061500 -3.411404 -5.219983 -5.608797 -4.767308 157.153478 -38.705931 -151.222859 15.964618 -15.670696 -49.405912 -0.788089 3.029125 3.599811 33.544513 -2.255641 5.178605 -166.533582 -32.995391 159.802586 -11.692879 -17.216310 32.974036 6.895524 -39.871278 -5.089628 -8.232152 68.906041 -10.919835 -2.183307 22.977571 -3.364095 -1.484920 -15.879784 12.132552 -10.361990 -38.745980 1.746596 31.430369 69.011294 32.591821 -11.807746 7.197980 -4.867522 -0.412190 -0.109998 -0.177468
-215.027687 57.809815 133.997927 177.536905 -35.360149 -0.701054 2.439544 23.113610 3.058706 0.237042 3.382215 0.396214 0.394666 5.459552 0.647389 1.742211 19.393246 2.553771 -2.313846 14.839158 -0.520757 -4.205712 -8.193723 -0.236720 -0.702938 2.140543 -3.433711 -5.790333 -5.376766 -4.443760 158.013907 -37.969579 -152.003369 16.135501 -15.682138 -49.748142 -0.755143 3.053177 3.608867 33.302602 -2.293430 4.772260 -165.450322 -32.162725 159.350455 -11.966519 -17.391989 32.864378 6.945503 -39.909167 -5.014949 -7.941369 68.901508 -10.725293 -2.228765 23.228760 -3.322406 -1.504979 -16.046991 12.167469 -10.310643 -38.726892 1.744298 31.437012 68.993701 32.607697 -11.806530 7.204323 -4.869012 -0.419296 -0.028774 -0.181450
-215.036827 57.782102 134.042631 177.520949 -35.349867 -0.678246 2.463243 23.091193 3.086966 0.249399 3.370044 0.434053 0.375492 5.469807 0.625942 1.738339 19.388983 2.587988 -2.317244 14.826032 -0.552789 -4.210514 -8.203521 -0.284588 -0.842479 2.234739 -3.514075 -6.392899 -5.172647 -4.171809 158.856533 -37.220811 -152.714509 16.333618 -15.738148 -50.119998 -0.754637 3.091953 3.561961 33.019511 -2.318246 4.362105 -164.556513 -31.498539 158.990206 -12.187421 -17.561415 32.780021 6.964486 -39.975961 -4.982402 -7.639632 68.880492 -10.526171 -2.261328 23.453022 -3.305027 -1.526758 -16.181339 12.220500 -10.280313 -38.751689 1.716021 31.414382 68.930417 32.587921 -11.838471 7.270755 -4.880115 -0.409285 0.005213 -0.177952
-215.040609 57.757343 134.082525 177.473531 -35.392835 -0.677235 2.548011 23.097722 3.195476 0.228602 3.383960 0.404717 0.376799 5.472607 0.642799 1.734740 19.384645 2.622707 -2.326632 14.815821 -0.591121 -4.235801 -8.188732 -0.319614 -0.999320 2.327444 -3.596092 -7.004978 -5.000598 -3.960643 159.614824 -36.469896 -153.312857 16.545509 -15.825579 -50.476125 -0.734411 3.155683 3.540635 32.676813 -2.336358 3.923549 -163.864499 -31.013854 158.726929 -12.363939 -17.728375 32.719518 6.927835 -40.008774 -4.857499 -7.382311 68.864944 -10.398595 -2.280692 23.702036 -3.302729 -1.550737 -16.339203 12.284071 -10.250414 -38.723985 1.729745 31.418910 68.922438 32.596838 -11.834813 7.272573 -4.878208 -0.412955 0.052481 -0.180151
-215.046253 57.728288 134.127063 177.408182 -35.414431 -0.669299 2.629023 23.095501 3.259075 0.230057 3.377346 0.417829 0.384165 5.451905 0.682222 1.704448 19.406990 2.619732 -2.331789 14.813258 -0.628012 -4.217168 -8.198502 -0.365991 -1.154383 2.417993 -3.670774 -7.598669 -4.856699 -3.814139 160.241308 -35.726738 -153.777215 16.746291 -15.917014 -50.773614 -0.724917 3.226873 3.522129 32.328169 -2.344240 3.500640 -163.363433 -30.697361 158.549208 -12.501494 -17.881931 32.685733 6.880676 -40.083227 -4.715692 -7.197440 68.856329 -10.355090 -2.292748 23.974896 -3.318271 -1.571917 -16.513241 12.358055 -10.207983 -38.731522 1.751082 31.435310 68.928947 32.620403 -11.828407 7.293887 -4.873292 -0.419085 0.063294 -0.181755
-215.057437 57.697046 134.172707 177.343349 -35.435244 -0.646052 2.695353 23.103528 3.289188 0.231143 3.370044 0.425340 0.380773 5.440085 0.691333 1.705987 19.376014 2.686345 -2.350248 14.844526 -0.697051 -4.186675 -8.195508 -0.413278 -1.310619 2.532165 -3.771813 -8.144733 -4.738130 -3.729908 160.712248 -35.009473 -154.110155 16.916018 -15.987873 -50.982816 -0.728655 3.327513 3.472619 31.981943 -2.340949 3.105145 -163.024659 -30.517483 158.445635 -12.610238 -18.015397 32.678661 6.869512 -40.149863 -4.631342 -7.086450 68.834451 -10.345483 -2.269396 24.237566 -3.343739 -1.608189 -16.670222 12.435506 -10.161677 -38.730161 1.763857 31.405789 68.920928 32.583811 -11.832844 7.308916 -4.871590 -0.404513 0.116353 -0.178528
-215.074516 57.667100 134.214292 177.328303 -35.487863 -0.635113 2.714036 23.144408 3.300862 0.227064 3.375131 0.421706 0.376038 5.408258 0.703326 1.688307 19.358208 2.714774 -2.344775 14.886188 -0.741079 -4.150392 -8.191791 -0.454288 -1.437508 2.633652 -3.838565 -8.625881 -4.641437 -3.701903 161.024967 -34.342333 -154.333488 17.044258 -16.032578 -51.097152 -0.716214 3.415753 3.460210 31.646928 -2.320814 2.737041 -162.798893 -30.429153 158.396711 -12.703853 -18.135508 32.698693 6.845576 -40.186352 -4.600363 -7.030519 68.850332 -10.345877 -2.235388 24.434131 -3.395268 -1.648513 -16.794869 12.517302 -10.140932 -38.699927 1.752613 31.384064 68.911065 32.551786 -11.859685 7.314833 -4.879889 -0.376640 0.177696 -0.167265
-215.095302 57.631473 134.261663 177.272753 -35.496583 -0.600661 2.756220 23.097119 3.308694 0.229248 3.398425 0.423675 0.357701 5.393737 0.700114 1.667784 19.346477 2.725519 -2.320099 14.931405 -0.766345 -4.070313 -8.156009 -0.532643 -1.547647 2.728931 -3.888699 -9.037373 -4.561439 -3.721438 161.200103 -33.748343 -154.474809 17.131769 -16.056031 -51.138428 -0.758284 3.510738 3.492609 31.390830 -2.284338 2.366607 -162.625886 -30.391580 158.371065 -12.789811 -18.249700 32.738020 6.872995 -40.261497 -4.595798 -7.082020 68.806598 -10.439600 -2.138954 24.719527 -3.420019 -1.709849 -16.956663 12.587192 -10.094377 -38.706625 1.752749 31.379042 68.883076 32.513854 -11.872627 7.317799 -4.855115 -0.369493 -0.030403 -0.351878
-215.112897 57.599829 134.301679 177.129934 -35.555487 -0.551406 2.868997 23.107856 3.340145 0.215174 3.360186 0.427595 0.360540 5.425829 0.697624 1.643817 19.333591 2.729950 -2.284672 14.963624 -0.782424 -4.031240 -8.096786 -0.574806 -1.636885 2.820174 -3.935844 -9.386878 -4.497713 -3.777890 161.280070 -33.246121 -154.563874 17.189228 -16.063496 -51.138712 -0.769604 3.582552 3.491318 31.141379 -2.257744 2.067497 -162.461465 -30.377205 158.334970 -12.870728 -18.349468 32.777943 6.947410 -40.286301 -4.559447 -7.211982 68.757084 -10.582368 -2.018233 25.020229 -3.447800 -1.749339 -17.141632 12.642313 -9.998994 -38.660512 1.786334 31.391147 68.876473 32.507294 -11.862122 7.296266 -4.832050 -0.370157 -0.809039 -0.874760
-215.130300 57.567064 134.341446 177.088903 -35.604915 -0.577656 2.913426 23.135422 3.390761 0.205463 3.345705 0.425810 0.342164 5.405128 0.695318 1.618759 19.321168 2.729718 -2.272348 14.964621 -0.787436 -3.963900 -8.006720 -0.623315 -1.705224 2.903848 -3.977989 -9.686810 -4.455599 -3.858015 161.312807 -32.843658 -154.624353 17.226656 -16.058459 -51.116133 -0.742529 3.652042 3.482504 30.900289 -2.256333 1.807444 -162.276308 -30.364667 158.267438 -12.942672 -18.421630 32.803914 6.936088 -40.315656 -4.521508 -7.340925 68.722704 -10.702696 -1.882667 25.246672 -3.461049 -1.805769 -17.269894 12.681291 -10.011782 -38.636621 1.872729 31.393065 68.901953 32.479217 -11.928664 7.286627 -4.853304 -0.283075 -1.759329 -1.441698
-215.151458 57.535037 134.378221 177.044576 -35.660096 -0.588875 2.952400 23.168919 3.424297 0.210573 3.354307 0.427869 0.299210 5.362266 0.686325 1.594794 19.309423 2.726680 -2.243851 15.001211 -0.796499 -3.918836 -7.967058 -0.648336 -1.756805 2.979209 -4.015587 -9.942823 -4.437681 -3.949661 161.332441 -32.537577 -154.669985 17.251342 -16.041136 -51.083304 -0.704186 3.718335 3.475053 30.680794 -2.270367 1.581644 -161.991485 -30.341119 158.101000 -12.975587 -18.473860 32.860461 6.949567 -40.332547 -4.512002 -7.492222 68.685941 -10.830560 -1.756955 25.461035 -3.483829 -1.867811 -17.385671 12.726195 -10.000260 -38.596278 1.921575 31.399719 68.908159 32.465389 -11.978348 7.253199 -4.865525 -0.211693 -2.487990 -1.896754
-215.173741 57.504458 134.411374 176.981006 -35.723916 -0.585363 2.931009 23.167181 3.404746 0.246424 3.375392 0.440560 0.282530 5.359403 0.681125 1.571993 19.299099 2.721775 -2.189503 15.049077 -0.807141 -3.876845 -7.913847 -0.669465 -1.794200 3.041333 -4.049530 -10.157677 -4.438851 -4.043853 161.344388 -32.315495 -154.706815 17.266668 -16.017308 -51.050461 -0.751097 3.747881 3.474483 30.565700 -2.259962 1.396037 -161.715226 -30.326152 157.950344 -13.047976 -18.511227 32.897332 6.993966 -40.336182 -4.513263 -7.645682 68.648287 -10.948709 -1.654729 25.666130 -3.517914 -1.911992 -17.495692 12.771935 -9.966705 -38.542364 1.954595 31.407951 68.907230 32.459169 -12.016058 7.228747 -4.878960 -0.156063 -3.070075 -2.256617
-215.191635 57.476607 134.439722 176.884721 -35.805930 -0.585972 2.957516 23.207278 3.416297 0.262924 3.374986 0.447791 0.268462 5.359668 0.675716 1.549675 19.291917 2.714572 -2.170969 15.072751 -0.804062 -3.799640 -7.852285 -0.698773 -1.818397 3.084470 -4.078245 -10.333460 -4.450329 -4.131941 161.338628 -32.157894 -154.736132 17.274523 -15.992781 -51.019670 -0.757881 3.764032 3.465096 30.432912 -2.268060 1.250004 -161.495800 -30.257918 157.909020 -13.111453 -18.491585 32.821297 7.059994 -40.318819 -4.485832 -7.769319 68.609768 -11.026128 -1.581127 25.864907 -3.558636 -1.974613 -17.595528 12.825979 -9.921853 -38.466878 2.012828 31.410888 68.916588 32.458118 -12.057240 7.217554 -4.911411 -0.095393 -3.551141 -2.530426
